#!OML:ASF H:\Dans Jumps\Project 1\Capture day 1\Session 1\subject.ASF
:FULLY-SPECIFIED
:DEGREES
173
root 0.460615 17.0399 -15.1705 10.9644 -1.37731 -1.65434
lowerback 7.47178 -0.22994 0.633915
upperback 6.40571 -0.303512 2.02131
thorax 2.44458 -0.175557 1.74615
lowerneck -14.4292 0.898586 -1.10886
upperneck 25.7347 1.92649 -1.38199
head 10.6535 0.600685 -0.0508838
rclavicle 1.78906e-015 5.56597e-015
rhumerus -23.3849 -11.4596 -80.8314
rradius 25.3633
rwrist 28.6442
rhand -20.1672 -27.2503
rfingers 7.12502
rthumb 6.17839 -57.1402
lclavicle 1.78906e-015 5.56597e-015
lhumerus -20.6008 -8.48925 89.6189
lradius 23.7024
lwrist 10.5847
lhand -26.5032 -2.93528
lfingers 7.12502
lthumb 0.0597234 27.0445
rfemur -32.6017 -3.72296 20.9021
rtibia 38.8177
rfoot -16.2663 -1.02069
rtoes 12.1462
lfemur -32.2815 10.0422 -19.7438
ltibia 38.2153
lfoot -15.3792 2.35818
ltoes 1.20631
174
root 0.461382 17.0147 -15.1988 11.0883 -1.39009 -1.62691
lowerback 7.73805 -0.222767 0.611327
upperback 6.47689 -0.291601 2.0117
thorax 2.37183 -0.170392 1.74963
lowerneck -14.476 0.897685 -1.11036
upperneck 25.486 1.92675 -1.40316
head 10.5711 0.600988 -0.0580735
rclavicle 3.37934e-015 1.27222e-014
rhumerus -23.4659 -11.4598 -80.7377
rradius 25.3517
rwrist 28.6491
rhand -20.157 -27.2615
rfingers 7.12502
rthumb 6.18828 -57.1511
lclavicle 3.37934e-015 1.27222e-014
lhumerus -20.6754 -8.35532 89.5182
lradius 23.6448
lwrist 10.5994
lhand -26.4776 -2.77772
lfingers 7.12502
lthumb 0.0844347 27.202
rfemur -33.1737 -3.73447 20.8961
rtibia 39.4097
rfoot -16.4122 -1.05025
rtoes 11.9931
lfemur -32.8401 10.1082 -19.8354
ltibia 38.7726
lfoot -15.519 2.34604
ltoes 1.18827
175
root 0.462359 16.9888 -15.2271 11.2142 -1.3993 -1.60035
lowerback 8.00408 -0.216899 0.59151
upperback 6.54395 -0.281345 2.00443
thorax 2.29516 -0.165981 1.75403
lowerneck -14.5269 0.897492 -1.10722
upperneck 25.2487 1.93024 -1.43603
head 10.4943 0.601673 -0.0697357
rclavicle 5.1684e-015 2.78299e-015
rhumerus -23.5553 -11.455 -80.6396
rradius 25.3416
rwrist 28.6423
rhand -20.1484 -27.2653
rfingers 7.12502
rthumb 6.19658 -57.1547
lclavicle 5.1684e-015 2.78299e-015
lhumerus -20.7624 -8.22414 89.4223
lradius 23.6032
lwrist 10.6419
lhand -26.4239 -2.56623
lfingers 7.12502
lthumb 0.136281 27.4135
rfemur -33.7486 -3.74301 20.8899
rtibia 40.0026
rfoot -16.5563 -1.0844
rtoes 11.8592
lfemur -33.4019 10.1702 -19.9275
ltibia 39.3314
lfoot -15.6632 2.33932
ltoes 1.15261
176
root 0.46339 16.9625 -15.2553 11.3411 -1.40577 -1.57369
lowerback 8.27027 -0.212613 0.57286
upperback 6.60775 -0.27318 1.99842
thorax 2.21529 -0.162578 1.75917
lowerneck -14.5742 0.898574 -1.10417
upperneck 25.015 1.93698 -1.47465
head 10.4186 0.60316 -0.0829715
rclavicle -1.39149e-015 -3.18055e-015
rhumerus -23.6511 -11.4538 -80.5385
rradius 25.3319
rwrist 28.6265
rhand -20.1513 -27.2634
rfingers 7.12502
rthumb 6.19378 -57.1528
lclavicle -1.39149e-015 -3.18055e-015
lhumerus -20.8541 -8.10441 89.3303
lradius 23.5663
lwrist 10.7211
lhand -26.3412 -2.31953
lfingers 7.12502
lthumb 0.216245 27.6601
rfemur -34.3251 -3.74688 20.883
rtibia 40.5954
rfoot -16.6981 -1.12776
rtoes 11.7251
lfemur -33.9649 10.2305 -20.0202
ltibia 39.8924
lfoot -15.8136 2.33366
ltoes 1.11187
177
root 0.464493 16.9357 -15.2835 11.4706 -1.40954 -1.54123
lowerback 8.53564 -0.20964 0.550755
upperback 6.66758 -0.266989 1.99164
thorax 2.132 -0.160236 1.76553
lowerneck -14.6208 0.900067 -1.10243
upperneck 24.7864 1.94533 -1.51599
head 10.3448 0.604919 -0.0967004
rclavicle -3.97569e-015 7.95139e-016
rhumerus -23.7553 -11.4399 -80.4384
rradius 25.3274
rwrist 28.588
rhand -20.1599 -27.274
rfingers 7.12502
rthumb 6.18541 -57.1637
lclavicle -3.97569e-015 7.95139e-016
lhumerus -20.955 -8.00106 89.2446
lradius 23.5308
lwrist 10.8239
lhand -26.2083 -2.00868
lfingers 7.12502
lthumb 0.344535 27.9708
rfemur -34.9058 -3.75175 20.8701
rtibia 41.1887
rfoot -16.8387 -1.17633
rtoes 11.5993
lfemur -34.5322 10.2884 -20.1207
ltibia 40.4562
lfoot -15.9684 2.32807
ltoes 1.06607
178
root 0.465446 16.9085 -15.3116 11.602 -1.41102 -1.50708
lowerback 8.79889 -0.207873 0.528053
upperback 6.7252 -0.262543 1.98379
thorax 2.04783 -0.158743 1.77124
lowerneck -14.6634 0.903128 -1.10206
upperneck 24.5586 1.95539 -1.55494
head 10.2708 0.607666 -0.109101
rclavicle 9.93923e-016 -1.59028e-015
rhumerus -23.8653 -11.4258 -80.3394
rradius 25.3223
rwrist 28.545
rhand -20.178 -27.2735
rfingers 7.12502
rthumb 6.16795 -57.1637
lclavicle 9.93923e-016 -1.59028e-015
lhumerus -21.0591 -7.91004 89.1607
lradius 23.4846
lwrist 10.95
lhand -26.0946 -1.78554
lfingers 7.12502
lthumb 0.454337 28.1937
rfemur -35.4887 -3.75733 20.8565
rtibia 41.7819
rfoot -16.9809 -1.22889
rtoes 11.4785
lfemur -35.1034 10.3456 -20.2235
ltibia 41.0232
lfoot -16.1275 2.31926
ltoes 1.02714
179
root 0.466094 16.8809 -15.3398 11.7323 -1.40873 -1.47159
lowerback 9.06066 -0.207172 0.504618
upperback 6.78355 -0.259716 1.97481
thorax 1.96551 -0.158054 1.7763
lowerneck -14.7064 0.906177 -1.10647
upperneck 24.3287 1.96427 -1.58548
head 10.1963 0.610489 -0.117843
rclavicle 9.93923e-015 1.19271e-015
rhumerus -23.9751 -11.4172 -80.2424
rradius 25.3167
rwrist 28.5038
rhand -20.1914 -27.2839
rfingers 7.12502
rthumb 6.15499 -57.1745
lclavicle 9.93923e-015 1.19271e-015
lhumerus -21.1627 -7.82523 89.0773
lradius 23.4264
lwrist 11.0792
lhand -25.9759 -1.61459
lfingers 7.12502
lthumb 0.568997 28.3644
rfemur -36.071 -3.76549 20.8432
rtibia 42.3764
rfoot -17.1259 -1.2858
rtoes 11.3618
lfemur -35.6764 10.4006 -20.3268
ltibia 41.594
lfoot -16.2874 2.30916
ltoes 0.982991
180
root 0.46641 16.8529 -15.3678 11.8609 -1.40271 -1.43615
lowerback 9.3193 -0.207154 0.481772
upperback 6.84469 -0.257985 1.96422
thorax 1.88806 -0.157866 1.77943
lowerneck -14.7547 0.910811 -1.10843
upperneck 24.0984 1.97354 -1.61147
head 10.1227 0.614253 -0.125295
rclavicle -5.36719e-015 -1.23246e-014
rhumerus -24.0829 -11.4125 -80.1497
rradius 25.3103
rwrist 28.4626
rhand -20.1987 -27.2976
rfingers 7.12502
rthumb 6.14801 -57.1884
lclavicle -5.36719e-015 -1.23246e-014
lhumerus -21.2673 -7.74488 88.993
lradius 23.3599
lwrist 11.1924
lhand -26.0447 -1.76709
lfingers 7.12502
lthumb 0.502541 28.2121
rfemur -36.6517 -3.77943 20.8318
rtibia 42.9732
rfoot -17.2761 -1.34165
rtoes 11.2512
lfemur -36.2501 10.453 -20.4287
ltibia 42.1696
lfoot -16.4477 2.29738
ltoes 0.943713
181
root 0.466392 16.8241 -15.3957 11.9881 -1.39415 -1.40222
lowerback 9.57549 -0.20703 0.458146
upperback 6.90851 -0.256398 1.95401
thorax 1.81502 -0.157799 1.78343
lowerneck -14.8059 0.914582 -1.1109
upperneck 23.8653 1.98053 -1.63323
head 10.049 0.617474 -0.13144
rclavicle -2.78299e-015 1.47101e-014
rhumerus -24.1853 -11.41 -80.0599
rradius 25.3036
rwrist 28.4243
rhand -20.1918 -27.3172
rfingers 7.12502
rthumb 6.1546 -57.2078
lclavicle -2.78299e-015 1.47101e-014
lhumerus -21.3721 -7.67176 88.9125
lradius 23.2893
lwrist 11.2938
lhand -26.1882 -2.0427
lfingers 7.12502
lthumb 0.363972 27.9367
rfemur -37.2329 -3.79839 20.8237
rtibia 43.574
rfoot -17.4307 -1.39448
rtoes 11.1433
lfemur -36.8266 10.5029 -20.5279
ltibia 42.75
lfoot -16.6071 2.28695
ltoes 0.899041
182
root 0.466104 16.7946 -15.4234 12.1138 -1.38841 -1.37288
lowerback 9.82852 -0.204896 0.43465
upperback 6.97563 -0.252422 1.94459
thorax 1.74732 -0.156578 1.78798
lowerneck -14.8548 0.917134 -1.11376
upperneck 23.6244 1.98439 -1.65028
head 9.97217 0.619917 -0.136273
rclavicle -5.1684e-015 1.74931e-014
rhumerus -24.2858 -11.412 -79.9723
rradius 25.3015
rwrist 28.3978
rhand -20.1727 -27.3373
rfingers 7.12502
rthumb 6.17313 -57.2274
lclavicle -5.1684e-015 1.74931e-014
lhumerus -21.4771 -7.60337 88.8358
lradius 23.2163
lwrist 11.3728
lhand -26.4237 -2.43637
lfingers 7.12502
lthumb 0.136506 27.5433
rfemur -37.8151 -3.81616 20.8206
rtibia 44.1794
rfoot -17.5884 -1.44432
rtoes 11.0254
lfemur -37.405 10.5548 -20.6219
ltibia 43.3355
lfoot -16.7655 2.28044
ltoes 0.850071
183
root 0.465791 16.7643 -15.4508 12.2364 -1.38753 -1.34545
lowerback 10.0796 -0.200598 0.407554
upperback 7.04525 -0.246103 1.93687
thorax 1.6835 -0.154372 1.79611
lowerneck -14.9074 0.918178 -1.1154
upperneck 23.3832 1.98561 -1.66647
head 9.89617 0.62136 -0.141322
rclavicle 3.97569e-015 -5.1684e-015
rhumerus -24.3854 -11.4049 -79.8851
rradius 25.3044
rwrist 28.3714
rhand -20.1452 -27.3442
rfingers 7.12502
rthumb 6.19966 -57.2335
lclavicle 3.97569e-015 -5.1684e-015
lhumerus -21.5847 -7.53614 88.766
lradius 23.1476
lwrist 11.4375
lhand -26.6679 -2.79599
lfingers 7.12502
lthumb -0.0993055 27.1837
rfemur -38.3961 -3.83503 20.8187
rtibia 44.7902
rfoot -17.7493 -1.48484
rtoes 10.9086
lfemur -37.9813 10.6073 -20.7137
ltibia 43.9256
lfoot -16.9243 2.27972
ltoes 0.797836
